<svg width="159" height="22" viewBox="0 0 159 22" fill="none" xmlns="http://www.w3.org/2000/svg">
<path d="M36.296 10.556H38.51V15.578C37.862 16.094 37.106 16.49 36.242 16.766C35.378 17.042 34.49 17.18 33.578 17.18C32.294 17.18 31.136 16.904 30.104 16.352C29.072 15.788 28.262 15.014 27.674 14.03C27.086 13.046 26.792 11.936 26.792 10.7C26.792 9.464 27.086 8.354 27.674 7.37C28.262 6.386 29.072 5.618 30.104 5.066C31.148 4.502 32.318 4.22 33.614 4.22C34.67 4.22 35.63 4.394 36.494 4.742C37.358 5.09 38.084 5.6 38.672 6.272L37.196 7.712C36.236 6.752 35.078 6.272 33.722 6.272C32.834 6.272 32.042 6.458 31.346 6.83C30.662 7.202 30.122 7.724 29.726 8.396C29.342 9.068 29.15 9.836 29.15 10.7C29.15 11.54 29.342 12.296 29.726 12.968C30.122 13.64 30.662 14.168 31.346 14.552C32.042 14.936 32.828 15.128 33.704 15.128C34.688 15.128 35.552 14.912 36.296 14.48V10.556ZM51.0463 15.038V17H41.5963V4.4H50.7943V6.362H43.9363V9.638H50.0203V11.564H43.9363V15.038H51.0463ZM64.8509 4.4V17H62.9249L55.9769 8.468V17H53.6549V4.4H55.5809L62.5289 12.932V4.4H64.8509ZM68.2272 4.4H70.5672V17H68.2272V4.4ZM83.4252 15.038V17H73.9752V4.4H83.1732V6.362H76.3152V9.638H82.3992V11.564H76.3152V15.038H83.4252ZM104.272 4.4L100.096 17H97.612L94.498 7.676L91.33 17H88.828L84.652 4.4H87.082L90.214 13.976L93.472 4.4H95.632L98.818 14.03L102.04 4.4H104.272ZM111.924 17.18C110.64 17.18 109.482 16.904 108.45 16.352C107.418 15.788 106.608 15.014 106.02 14.03C105.432 13.034 105.138 11.924 105.138 10.7C105.138 9.476 105.432 8.372 106.02 7.388C106.608 6.392 107.418 5.618 108.45 5.066C109.482 4.502 110.64 4.22 111.924 4.22C113.208 4.22 114.366 4.502 115.398 5.066C116.43 5.618 117.24 6.386 117.828 7.37C118.416 8.354 118.71 9.464 118.71 10.7C118.71 11.936 118.416 13.046 117.828 14.03C117.24 15.014 116.43 15.788 115.398 16.352C114.366 16.904 113.208 17.18 111.924 17.18ZM111.924 15.128C112.764 15.128 113.52 14.942 114.192 14.57C114.864 14.186 115.392 13.658 115.776 12.986C116.16 12.302 116.352 11.54 116.352 10.7C116.352 9.86 116.16 9.104 115.776 8.432C115.392 7.748 114.864 7.22 114.192 6.848C113.52 6.464 112.764 6.272 111.924 6.272C111.084 6.272 110.328 6.464 109.656 6.848C108.984 7.22 108.456 7.748 108.072 8.432C107.688 9.104 107.496 9.86 107.496 10.7C107.496 11.54 107.688 12.302 108.072 12.986C108.456 13.658 108.984 14.186 109.656 14.57C110.328 14.942 111.084 15.128 111.924 15.128ZM129.434 17L126.86 13.31C126.752 13.322 126.59 13.328 126.374 13.328H123.53V17H121.19V4.4H126.374C127.466 4.4 128.414 4.58 129.218 4.94C130.034 5.3 130.658 5.816 131.09 6.488C131.522 7.16 131.738 7.958 131.738 8.882C131.738 9.83 131.504 10.646 131.036 11.33C130.58 12.014 129.92 12.524 129.056 12.86L131.954 17H129.434ZM129.38 8.882C129.38 8.078 129.116 7.46 128.588 7.028C128.06 6.596 127.286 6.38 126.266 6.38H123.53V11.402H126.266C127.286 11.402 128.06 11.186 128.588 10.754C129.116 10.31 129.38 9.686 129.38 8.882ZM134.356 4.4H136.696V15.02H143.284V17H134.356V4.4ZM145.131 4.4H150.639C151.983 4.4 153.177 4.664 154.221 5.192C155.265 5.708 156.075 6.446 156.651 7.406C157.227 8.354 157.515 9.452 157.515 10.7C157.515 11.948 157.227 13.052 156.651 14.012C156.075 14.96 155.265 15.698 154.221 16.226C153.177 16.742 151.983 17 150.639 17H145.131V4.4ZM150.531 15.02C151.455 15.02 152.265 14.846 152.961 14.498C153.669 14.138 154.209 13.634 154.581 12.986C154.965 12.326 155.157 11.564 155.157 10.7C155.157 9.836 154.965 9.08 154.581 8.432C154.209 7.772 153.669 7.268 152.961 6.92C152.265 6.56 151.455 6.38 150.531 6.38H147.471V15.02H150.531Z" fill="#44474C"/>
<circle cx="10" cy="11" r="8.75" stroke="#E88D6D" stroke-width="2.5"/>
<circle cx="6.36364" cy="9.36364" r="1.36364" fill="#E88D6D"/>
<circle cx="13.3636" cy="9.36364" r="1.36364" fill="#E88D6D"/>
<path fill-rule="evenodd" clip-rule="evenodd" d="M6 12C6.22244 14.0123 7.92844 15.5774 10 15.5774C12.0716 15.5774 13.7776 14.0123 14 12H11.975C11.7714 12.903 10.9645 13.5774 10 13.5774C9.03552 13.5774 8.22856 12.903 8.02499 12H6Z" fill="#E88D6D"/>
</svg>
