<svg width="1440" height="1069" viewBox="0 0 1440 1069" fill="none" xmlns="http://www.w3.org/2000/svg">
<g opacity="0.8">
<circle cx="458.5" cy="734.5" r="92" stroke="#E88D6D"/>
<circle cx="347" cy="539" r="184.5" stroke="#E88D6D"/>
<circle cx="1156.9" cy="326.577" r="2.40392" fill="#A0BAAE"/>
<circle cx="1156.9" cy="296.991" r="2.40392" fill="#A0BAAE"/>
<circle cx="1156.9" cy="267.404" r="2.40392" fill="#A0BAAE"/>
<circle cx="1195.37" cy="326.577" r="2.40392" fill="#A0BAAE"/>
<circle cx="1195.37" cy="296.991" r="2.40392" fill="#A0BAAE"/>
<circle cx="1195.37" cy="267.404" r="2.40392" fill="#A0BAAE"/>
<circle cx="1233.83" cy="326.577" r="2.40392" fill="#A0BAAE"/>
<circle cx="1233.83" cy="296.991" r="2.40392" fill="#A0BAAE"/>
<circle cx="1233.83" cy="267.404" r="2.40392" fill="#A0BAAE"/>
<circle cx="1156.9" cy="444.577" r="2.40392" fill="#A0BAAE"/>
<circle cx="1156.9" cy="414.991" r="2.40392" fill="#A0BAAE"/>
<circle cx="1156.9" cy="385.404" r="2.40392" fill="#A0BAAE"/>
<circle cx="1195.37" cy="444.577" r="2.40392" fill="#A0BAAE"/>
<circle cx="1195.37" cy="414.991" r="2.40392" fill="#A0BAAE"/>
<circle cx="1195.37" cy="385.404" r="2.40392" fill="#A0BAAE"/>
<circle cx="1233.83" cy="444.577" r="2.40392" fill="#A0BAAE"/>
<circle cx="1233.83" cy="414.991" r="2.40392" fill="#A0BAAE"/>
<circle cx="1233.83" cy="385.404" r="2.40392" fill="#A0BAAE"/>
<circle cx="1003.9" cy="326.577" r="2.40392" fill="#A0BAAE"/>
<circle cx="1003.9" cy="296.991" r="2.40392" fill="#A0BAAE"/>
<circle cx="1003.9" cy="267.404" r="2.40392" fill="#A0BAAE"/>
<circle cx="1042.37" cy="326.577" r="2.40392" fill="#A0BAAE"/>
<circle cx="1042.37" cy="296.991" r="2.40392" fill="#A0BAAE"/>
<circle cx="1042.37" cy="267.404" r="2.40392" fill="#A0BAAE"/>
<circle cx="1080.83" cy="326.577" r="2.40392" fill="#A0BAAE"/>
<circle cx="1080.83" cy="296.991" r="2.40392" fill="#A0BAAE"/>
<circle cx="1080.83" cy="267.404" r="2.40392" fill="#A0BAAE"/>
<circle cx="1003.9" cy="444.577" r="2.40392" fill="#A0BAAE"/>
<circle cx="1003.9" cy="414.991" r="2.40392" fill="#A0BAAE"/>
<circle cx="1003.9" cy="385.404" r="2.40392" fill="#A0BAAE"/>
<circle cx="1042.37" cy="444.577" r="2.40392" fill="#A0BAAE"/>
<circle cx="1042.37" cy="414.991" r="2.40392" fill="#A0BAAE"/>
<circle cx="1042.37" cy="385.404" r="2.40392" fill="#A0BAAE"/>
<circle cx="1080.83" cy="444.577" r="2.40392" fill="#A0BAAE"/>
<circle cx="1080.83" cy="414.991" r="2.40392" fill="#A0BAAE"/>
<circle cx="1080.83" cy="385.404" r="2.40392" fill="#A0BAAE"/>
<circle cx="1156.9" cy="385.577" r="2.40392" fill="#A0BAAE"/>
<circle cx="1156.9" cy="355.991" r="2.40392" fill="#A0BAAE"/>
<circle cx="1156.9" cy="326.404" r="2.40392" fill="#A0BAAE"/>
<circle cx="1195.37" cy="385.577" r="2.40392" fill="#A0BAAE"/>
<circle cx="1195.37" cy="355.991" r="2.40392" fill="#A0BAAE"/>
<circle cx="1195.37" cy="326.404" r="2.40392" fill="#A0BAAE"/>
<circle cx="1233.83" cy="385.577" r="2.40392" fill="#A0BAAE"/>
<circle cx="1233.83" cy="355.991" r="2.40392" fill="#A0BAAE"/>
<circle cx="1233.83" cy="326.404" r="2.40392" fill="#A0BAAE"/>
<circle cx="1156.9" cy="503.577" r="2.40392" fill="#A0BAAE"/>
<circle cx="1156.9" cy="473.991" r="2.40392" fill="#A0BAAE"/>
<circle cx="1156.9" cy="444.404" r="2.40392" fill="#A0BAAE"/>
<circle cx="1195.37" cy="503.577" r="2.40392" fill="#A0BAAE"/>
<circle cx="1195.37" cy="473.991" r="2.40392" fill="#A0BAAE"/>
<circle cx="1195.37" cy="444.404" r="2.40392" fill="#A0BAAE"/>
<circle cx="1233.83" cy="503.577" r="2.40392" fill="#A0BAAE"/>
<circle cx="1233.83" cy="473.991" r="2.40392" fill="#A0BAAE"/>
<circle cx="1233.83" cy="444.404" r="2.40392" fill="#A0BAAE"/>
<circle cx="1003.9" cy="385.577" r="2.40392" fill="#A0BAAE"/>
<circle cx="1003.9" cy="355.991" r="2.40392" fill="#A0BAAE"/>
<circle cx="1003.9" cy="326.404" r="2.40392" fill="#A0BAAE"/>
<circle cx="1042.37" cy="385.577" r="2.40392" fill="#A0BAAE"/>
<circle cx="1042.37" cy="355.991" r="2.40392" fill="#A0BAAE"/>
<circle cx="1042.37" cy="326.404" r="2.40392" fill="#A0BAAE"/>
<circle cx="1080.83" cy="385.577" r="2.40392" fill="#A0BAAE"/>
<circle cx="1080.83" cy="355.991" r="2.40392" fill="#A0BAAE"/>
<circle cx="1080.83" cy="326.404" r="2.40392" fill="#A0BAAE"/>
<circle cx="1003.9" cy="503.577" r="2.40392" fill="#A0BAAE"/>
<circle cx="1003.9" cy="473.991" r="2.40392" fill="#A0BAAE"/>
<circle cx="1003.9" cy="444.404" r="2.40392" fill="#A0BAAE"/>
<circle cx="1042.37" cy="503.577" r="2.40392" fill="#A0BAAE"/>
<circle cx="1042.37" cy="473.991" r="2.40392" fill="#A0BAAE"/>
<circle cx="1042.37" cy="444.404" r="2.40392" fill="#A0BAAE"/>
<circle cx="1080.83" cy="503.577" r="2.40392" fill="#A0BAAE"/>
<circle cx="1080.83" cy="473.991" r="2.40392" fill="#A0BAAE"/>
<circle cx="1080.83" cy="444.404" r="2.40392" fill="#A0BAAE"/>
<circle cx="1080.4" cy="326.577" r="2.40392" fill="#A0BAAE"/>
<circle cx="1080.4" cy="296.991" r="2.40392" fill="#A0BAAE"/>
<circle cx="1080.4" cy="267.404" r="2.40392" fill="#A0BAAE"/>
<circle cx="1118.87" cy="326.577" r="2.40392" fill="#A0BAAE"/>
<circle cx="1118.87" cy="296.991" r="2.40392" fill="#A0BAAE"/>
<circle cx="1118.87" cy="267.404" r="2.40392" fill="#A0BAAE"/>
<circle cx="1157.33" cy="326.577" r="2.40392" fill="#A0BAAE"/>
<circle cx="1157.33" cy="296.991" r="2.40392" fill="#A0BAAE"/>
<circle cx="1157.33" cy="267.404" r="2.40392" fill="#A0BAAE"/>
<circle cx="1080.4" cy="444.577" r="2.40392" fill="#A0BAAE"/>
<circle cx="1080.4" cy="414.991" r="2.40392" fill="#A0BAAE"/>
<circle cx="1080.4" cy="385.404" r="2.40392" fill="#A0BAAE"/>
<circle cx="1118.87" cy="444.577" r="2.40392" fill="#A0BAAE"/>
<circle cx="1118.87" cy="414.991" r="2.40392" fill="#A0BAAE"/>
<circle cx="1118.87" cy="385.404" r="2.40392" fill="#A0BAAE"/>
<circle cx="1157.33" cy="444.577" r="2.40392" fill="#A0BAAE"/>
<circle cx="1157.33" cy="414.991" r="2.40392" fill="#A0BAAE"/>
<circle cx="1157.33" cy="385.404" r="2.40392" fill="#A0BAAE"/>
<circle cx="927.404" cy="326.577" r="2.40392" fill="#A0BAAE"/>
<circle cx="927.404" cy="296.991" r="2.40392" fill="#A0BAAE"/>
<circle cx="927.404" cy="267.404" r="2.40392" fill="#A0BAAE"/>
<circle cx="965.867" cy="326.577" r="2.40392" fill="#A0BAAE"/>
<circle cx="965.867" cy="296.991" r="2.40392" fill="#A0BAAE"/>
<circle cx="965.867" cy="267.404" r="2.40392" fill="#A0BAAE"/>
<circle cx="1004.33" cy="326.577" r="2.40392" fill="#A0BAAE"/>
<circle cx="1004.33" cy="296.991" r="2.40392" fill="#A0BAAE"/>
<circle cx="1004.33" cy="267.404" r="2.40392" fill="#A0BAAE"/>
<circle cx="927.404" cy="444.577" r="2.40392" fill="#A0BAAE"/>
<circle cx="927.404" cy="414.991" r="2.40392" fill="#A0BAAE"/>
<circle cx="927.404" cy="385.404" r="2.40392" fill="#A0BAAE"/>
<circle cx="965.867" cy="444.577" r="2.40392" fill="#A0BAAE"/>
<circle cx="965.867" cy="414.991" r="2.40392" fill="#A0BAAE"/>
<circle cx="965.867" cy="385.404" r="2.40392" fill="#A0BAAE"/>
<circle cx="1004.33" cy="444.577" r="2.40392" fill="#A0BAAE"/>
<circle cx="1004.33" cy="414.991" r="2.40392" fill="#A0BAAE"/>
<circle cx="1004.33" cy="385.404" r="2.40392" fill="#A0BAAE"/>
<circle cx="1080.4" cy="385.577" r="2.40392" fill="#A0BAAE"/>
<circle cx="1080.4" cy="355.991" r="2.40392" fill="#A0BAAE"/>
<circle cx="1080.4" cy="326.404" r="2.40392" fill="#A0BAAE"/>
<circle cx="1118.87" cy="385.577" r="2.40392" fill="#A0BAAE"/>
<circle cx="1118.87" cy="355.991" r="2.40392" fill="#A0BAAE"/>
<circle cx="1118.87" cy="326.404" r="2.40392" fill="#A0BAAE"/>
<circle cx="1157.33" cy="385.577" r="2.40392" fill="#A0BAAE"/>
<circle cx="1157.33" cy="355.991" r="2.40392" fill="#A0BAAE"/>
<circle cx="1157.33" cy="326.404" r="2.40392" fill="#A0BAAE"/>
<circle cx="1080.4" cy="503.577" r="2.40392" fill="#A0BAAE"/>
<circle cx="1080.4" cy="473.991" r="2.40392" fill="#A0BAAE"/>
<circle cx="1080.4" cy="444.404" r="2.40392" fill="#A0BAAE"/>
<circle cx="1118.87" cy="503.577" r="2.40392" fill="#A0BAAE"/>
<circle cx="1118.87" cy="473.991" r="2.40392" fill="#A0BAAE"/>
<circle cx="1118.87" cy="444.404" r="2.40392" fill="#A0BAAE"/>
<circle cx="1157.33" cy="503.577" r="2.40392" fill="#A0BAAE"/>
<circle cx="1157.33" cy="473.991" r="2.40392" fill="#A0BAAE"/>
<circle cx="1157.33" cy="444.404" r="2.40392" fill="#A0BAAE"/>
<circle cx="927.404" cy="385.577" r="2.40392" fill="#A0BAAE"/>
<circle cx="927.404" cy="355.991" r="2.40392" fill="#A0BAAE"/>
<circle cx="927.404" cy="326.404" r="2.40392" fill="#A0BAAE"/>
<circle cx="965.867" cy="385.577" r="2.40392" fill="#A0BAAE"/>
<circle cx="965.867" cy="355.991" r="2.40392" fill="#A0BAAE"/>
<circle cx="965.867" cy="326.404" r="2.40392" fill="#A0BAAE"/>
<circle cx="1004.33" cy="385.577" r="2.40392" fill="#A0BAAE"/>
<circle cx="1004.33" cy="355.991" r="2.40392" fill="#A0BAAE"/>
<circle cx="1004.33" cy="326.404" r="2.40392" fill="#A0BAAE"/>
<circle cx="927.404" cy="503.577" r="2.40392" fill="#A0BAAE"/>
<circle cx="927.404" cy="473.991" r="2.40392" fill="#A0BAAE"/>
<circle cx="927.404" cy="444.404" r="2.40392" fill="#A0BAAE"/>
<circle cx="965.867" cy="503.577" r="2.40392" fill="#A0BAAE"/>
<circle cx="965.867" cy="473.991" r="2.40392" fill="#A0BAAE"/>
<circle cx="965.867" cy="444.404" r="2.40392" fill="#A0BAAE"/>
<circle cx="1004.33" cy="503.577" r="2.40392" fill="#A0BAAE"/>
<circle cx="1004.33" cy="473.991" r="2.40392" fill="#A0BAAE"/>
<circle cx="1004.33" cy="444.404" r="2.40392" fill="#A0BAAE"/>
<line x1="-68.1094" y1="923.646" x2="337.891" y2="517.646" stroke="#A0BAAE"/>
<line x1="-52.6973" y1="878.521" x2="30.3027" y2="795.521" stroke="#A0BAAE"/>
<line x1="-70.3536" y1="962.217" x2="96.6465" y2="795.217" stroke="#A0BAAE"/>
<path fill-rule="evenodd" clip-rule="evenodd" d="M942.382 860.34C951.106 860.34 958.237 867.16 958.736 875.759H959.123C959.121 875.865 959.12 875.972 959.12 876.08C959.12 884.575 966.007 891.462 974.502 891.462C982.997 891.462 989.884 884.575 989.884 876.08C989.884 875.972 989.882 875.865 989.88 875.759H990.271C990.77 867.16 997.901 860.34 1006.62 860.34C1015.35 860.34 1022.48 867.16 1022.98 875.759H1023.37C1023.37 875.865 1023.36 875.972 1023.36 876.08C1023.36 884.575 1030.25 891.462 1038.75 891.462C1047.24 891.462 1054.13 884.575 1054.13 876.08C1054.13 875.972 1054.13 875.865 1054.12 875.759H1054.51C1055.01 867.16 1062.14 860.34 1070.87 860.34C1079.59 860.34 1086.72 867.16 1087.22 875.759H1087.61C1087.61 875.865 1087.61 875.972 1087.61 876.08C1087.61 884.575 1094.49 891.462 1102.99 891.462C1111.48 891.462 1118.37 884.575 1118.37 876.08C1118.37 875.972 1118.37 875.865 1118.37 875.759H1118.75C1119.25 867.16 1126.38 860.34 1135.11 860.34C1143.83 860.34 1150.96 867.16 1151.46 875.759H1151.85C1151.85 875.865 1151.85 875.972 1151.85 876.08C1151.85 884.575 1158.74 891.462 1167.23 891.462C1175.73 891.462 1182.61 884.575 1182.61 876.08C1182.61 875.972 1182.61 875.865 1182.61 875.759H1183C1183.5 867.16 1190.63 860.34 1199.35 860.34C1208.08 860.34 1215.21 867.16 1215.71 875.759H1216.1C1216.1 875.865 1216.1 875.972 1216.1 876.08C1216.1 884.575 1222.98 891.462 1231.48 891.462C1239.97 891.462 1246.86 884.575 1246.86 876.08C1246.86 875.972 1246.86 875.865 1246.86 875.759H1247.24C1247.74 867.16 1254.87 860.34 1263.6 860.34C1272.32 860.34 1279.45 867.16 1279.95 875.759H1280.34C1280.34 875.865 1280.34 875.972 1280.34 876.08C1280.34 884.575 1287.22 891.462 1295.72 891.462C1304.21 891.462 1311.1 884.575 1311.1 876.08C1311.1 875.972 1311.1 875.865 1311.1 875.759H1311.49C1311.98 867.16 1319.12 860.34 1327.84 860.34C1336.56 860.34 1343.69 867.16 1344.19 875.759H1344.58C1344.58 875.865 1344.58 875.972 1344.58 876.08C1344.58 884.575 1351.47 891.462 1359.96 891.462C1368.46 891.462 1375.34 884.575 1375.34 876.08C1375.34 875.972 1375.34 875.865 1375.34 875.759H1375.73C1376.23 867.16 1383.36 860.34 1392.08 860.34C1400.81 860.34 1407.94 867.16 1408.44 875.759H1408.82C1408.82 875.865 1408.82 875.972 1408.82 876.08C1408.82 884.575 1415.71 891.462 1424.2 891.462C1432.7 891.462 1439.59 884.575 1439.59 876.08C1439.59 875.972 1439.58 875.865 1439.58 875.759H1440.58C1440.58 875.865 1440.59 875.972 1440.59 876.08C1440.59 885.127 1433.25 892.462 1424.2 892.462C1415.48 892.462 1408.35 885.642 1407.85 877.043H1407.46C1407.46 876.937 1407.46 876.83 1407.46 876.722C1407.46 868.227 1400.58 861.34 1392.08 861.34C1383.59 861.34 1376.7 868.227 1376.7 876.722C1376.7 876.83 1376.7 876.937 1376.7 877.043H1376.31C1375.82 885.642 1368.68 892.462 1359.96 892.462C1351.24 892.462 1344.11 885.642 1343.61 877.043H1343.22C1343.22 876.937 1343.22 876.83 1343.22 876.722C1343.22 868.227 1336.33 861.34 1327.84 861.34C1319.34 861.34 1312.46 868.227 1312.46 876.722C1312.46 876.83 1312.46 876.937 1312.46 877.043H1312.07C1311.57 885.642 1304.44 892.462 1295.72 892.462C1287 892.462 1279.86 885.642 1279.37 877.043H1278.98C1278.98 876.937 1278.98 876.83 1278.98 876.722C1278.98 868.227 1272.09 861.34 1263.6 861.34C1255.1 861.34 1248.21 868.227 1248.21 876.722C1248.21 876.83 1248.22 876.937 1248.22 877.043H1247.83C1247.33 885.642 1240.2 892.462 1231.48 892.462C1222.75 892.462 1215.62 885.642 1215.12 877.043H1214.73C1214.73 876.937 1214.74 876.83 1214.74 876.722C1214.74 868.227 1207.85 861.34 1199.35 861.34C1190.86 861.34 1183.97 868.227 1183.97 876.722C1183.97 876.83 1183.97 876.937 1183.98 877.043H1183.59C1183.09 885.642 1175.96 892.462 1167.23 892.462C1158.51 892.462 1151.38 885.642 1150.88 877.043H1150.49C1150.49 876.937 1150.49 876.83 1150.49 876.722C1150.49 868.227 1143.6 861.34 1135.11 861.34C1126.61 861.34 1119.73 868.227 1119.73 876.722C1119.73 876.83 1119.73 876.937 1119.73 877.043H1119.34C1118.84 885.642 1111.71 892.462 1102.99 892.462C1094.26 892.462 1087.13 885.642 1086.63 877.043H1086.24C1086.25 876.937 1086.25 876.83 1086.25 876.722C1086.25 868.227 1079.36 861.34 1070.87 861.34C1062.37 861.34 1055.48 868.227 1055.48 876.722C1055.48 876.83 1055.48 876.937 1055.49 877.043H1055.1C1054.6 885.642 1047.47 892.462 1038.75 892.462C1030.02 892.462 1022.89 885.642 1022.39 877.043H1022C1022.01 876.937 1022.01 876.83 1022.01 876.722C1022.01 868.227 1015.12 861.34 1006.62 861.34C998.13 861.34 991.243 868.227 991.243 876.722C991.243 876.83 991.244 876.937 991.246 877.043H990.856C990.357 885.642 983.226 892.462 974.502 892.462C965.778 892.462 958.647 885.642 958.148 877.043H957.76C957.763 876.937 957.764 876.83 957.764 876.722C957.764 868.227 950.877 861.34 942.382 861.34C933.887 861.34 927 868.227 927 876.722C927 876.83 927.001 876.937 927.003 877.043L926.003 877.043C926.001 876.937 926 876.83 926 876.722C926 867.675 933.334 860.34 942.382 860.34Z" fill="#E88D6D"/>
<path fill-rule="evenodd" clip-rule="evenodd" d="M942.382 813.171C951.106 813.171 958.237 819.99 958.736 828.589H959.123C959.121 828.696 959.12 828.803 959.12 828.91C959.12 837.406 966.007 844.292 974.502 844.292C982.997 844.292 989.884 837.406 989.884 828.91C989.884 828.803 989.882 828.696 989.88 828.589H990.271C990.77 819.99 997.901 813.171 1006.62 813.171C1015.35 813.171 1022.48 819.99 1022.98 828.589H1023.37C1023.37 828.696 1023.36 828.803 1023.36 828.91C1023.36 837.406 1030.25 844.292 1038.75 844.292C1047.24 844.292 1054.13 837.406 1054.13 828.91C1054.13 828.803 1054.13 828.696 1054.12 828.589H1054.51C1055.01 819.99 1062.14 813.171 1070.87 813.171C1079.59 813.171 1086.72 819.99 1087.22 828.589H1087.61C1087.61 828.696 1087.61 828.803 1087.61 828.91C1087.61 837.406 1094.49 844.292 1102.99 844.292C1111.48 844.292 1118.37 837.406 1118.37 828.91C1118.37 828.803 1118.37 828.696 1118.37 828.589H1118.75C1119.25 819.99 1126.38 813.171 1135.11 813.171C1143.83 813.171 1150.96 819.99 1151.46 828.589H1151.85C1151.85 828.696 1151.85 828.803 1151.85 828.91C1151.85 837.406 1158.74 844.292 1167.23 844.292C1175.73 844.292 1182.61 837.406 1182.61 828.91C1182.61 828.803 1182.61 828.696 1182.61 828.589H1183C1183.5 819.99 1190.63 813.171 1199.35 813.171C1208.08 813.171 1215.21 819.99 1215.71 828.589H1216.1C1216.1 828.696 1216.1 828.803 1216.1 828.91C1216.1 837.406 1222.98 844.292 1231.48 844.292C1239.97 844.292 1246.86 837.406 1246.86 828.91C1246.86 828.803 1246.86 828.696 1246.86 828.589H1247.24C1247.74 819.99 1254.87 813.171 1263.6 813.171C1272.32 813.171 1279.45 819.99 1279.95 828.589H1280.34C1280.34 828.696 1280.34 828.803 1280.34 828.91C1280.34 837.406 1287.22 844.292 1295.72 844.292C1304.21 844.292 1311.1 837.406 1311.1 828.91C1311.1 828.803 1311.1 828.696 1311.1 828.589H1311.49C1311.98 819.99 1319.12 813.171 1327.84 813.171C1336.56 813.171 1343.69 819.99 1344.19 828.589H1344.58C1344.58 828.696 1344.58 828.803 1344.58 828.91C1344.58 837.406 1351.47 844.292 1359.96 844.292C1368.46 844.292 1375.34 837.406 1375.34 828.91C1375.34 828.849 1375.34 828.788 1375.34 828.727C1375.34 828.681 1375.34 828.635 1375.34 828.589H1375.73C1376.23 819.99 1383.36 813.171 1392.08 813.171C1400.81 813.171 1407.94 819.99 1408.44 828.589H1408.82C1408.82 828.696 1408.82 828.803 1408.82 828.91C1408.82 837.406 1415.71 844.292 1424.2 844.292C1432.7 844.292 1439.59 837.406 1439.59 828.91C1439.59 828.803 1439.58 828.696 1439.58 828.589H1440.58C1440.58 828.696 1440.59 828.803 1440.59 828.91C1440.59 837.958 1433.25 845.292 1424.2 845.292C1415.48 845.292 1408.35 838.473 1407.85 829.874H1407.46C1407.46 829.767 1407.46 829.66 1407.46 829.553C1407.46 821.058 1400.58 814.171 1392.08 814.171C1383.59 814.171 1376.7 821.058 1376.7 829.553C1376.7 829.66 1376.7 829.767 1376.7 829.874H1376.31C1375.82 838.473 1368.68 845.292 1359.96 845.292C1351.24 845.292 1344.11 838.473 1343.61 829.874H1343.22C1343.22 829.767 1343.22 829.66 1343.22 829.553C1343.22 821.058 1336.33 814.171 1327.84 814.171C1319.34 814.171 1312.46 821.058 1312.46 829.553C1312.46 829.66 1312.46 829.767 1312.46 829.874H1312.07C1311.57 838.473 1304.44 845.292 1295.72 845.292C1287 845.292 1279.86 838.473 1279.37 829.874H1278.98C1278.98 829.767 1278.98 829.66 1278.98 829.553C1278.98 821.058 1272.09 814.171 1263.6 814.171C1255.1 814.171 1248.21 821.058 1248.21 829.553C1248.21 829.66 1248.22 829.767 1248.22 829.874H1247.83C1247.33 838.473 1240.2 845.292 1231.48 845.292C1222.75 845.292 1215.62 838.473 1215.12 829.874H1214.73C1214.73 829.767 1214.74 829.66 1214.74 829.553C1214.74 821.058 1207.85 814.171 1199.35 814.171C1190.86 814.171 1183.97 821.058 1183.97 829.553C1183.97 829.66 1183.97 829.767 1183.98 829.874H1183.59C1183.09 838.473 1175.96 845.292 1167.23 845.292C1158.51 845.292 1151.38 838.473 1150.88 829.874H1150.49C1150.49 829.767 1150.49 829.66 1150.49 829.553C1150.49 821.058 1143.6 814.171 1135.11 814.171C1126.61 814.171 1119.73 821.058 1119.73 829.553C1119.73 829.66 1119.73 829.767 1119.73 829.874H1119.34C1118.84 838.473 1111.71 845.292 1102.99 845.292C1094.26 845.292 1087.13 838.473 1086.63 829.874H1086.24C1086.25 829.767 1086.25 829.66 1086.25 829.553C1086.25 821.058 1079.36 814.171 1070.87 814.171C1062.37 814.171 1055.48 821.058 1055.48 829.553C1055.48 829.66 1055.48 829.767 1055.49 829.874H1055.1C1054.6 838.473 1047.47 845.292 1038.75 845.292C1030.02 845.292 1022.89 838.473 1022.39 829.874H1022C1022.01 829.767 1022.01 829.66 1022.01 829.553C1022.01 821.058 1015.12 814.171 1006.62 814.171C998.13 814.171 991.243 821.058 991.243 829.553C991.243 829.66 991.244 829.767 991.246 829.874H990.856C990.357 838.473 983.226 845.292 974.502 845.292C965.778 845.292 958.647 838.473 958.148 829.874H957.76C957.763 829.767 957.764 829.66 957.764 829.553C957.764 821.058 950.877 814.171 942.382 814.171C933.887 814.171 927 821.058 927 829.553C927 829.66 927.001 829.767 927.003 829.874L926.003 829.874C926.001 829.767 926 829.66 926 829.553C926 820.505 933.334 813.171 942.382 813.171Z" fill="#E88D6D"/>
<path fill-rule="evenodd" clip-rule="evenodd" d="M942.382 766C951.106 766 958.237 772.82 958.736 781.419H959.123C959.121 781.526 959.12 781.633 959.12 781.74C959.12 790.235 966.007 797.122 974.502 797.122C982.997 797.122 989.884 790.235 989.884 781.74C989.884 781.633 989.882 781.526 989.88 781.419H990.271C990.769 772.82 997.901 766 1006.62 766C1015.35 766 1022.48 772.82 1022.98 781.419H1023.37C1023.37 781.526 1023.36 781.633 1023.36 781.74C1023.36 790.235 1030.25 797.122 1038.75 797.122C1047.24 797.122 1054.13 790.235 1054.13 781.74C1054.13 781.633 1054.13 781.526 1054.12 781.419H1054.51C1055.01 772.82 1062.14 766 1070.87 766C1079.59 766 1086.72 772.82 1087.22 781.419H1087.61C1087.61 781.526 1087.61 781.633 1087.61 781.74C1087.61 790.235 1094.49 797.122 1102.99 797.122C1111.48 797.122 1118.37 790.235 1118.37 781.74C1118.37 781.633 1118.37 781.526 1118.37 781.419H1118.75C1119.25 772.82 1126.38 766 1135.11 766C1143.83 766 1150.96 772.82 1151.46 781.419H1151.85C1151.85 781.526 1151.85 781.633 1151.85 781.74C1151.85 790.235 1158.74 797.122 1167.23 797.122C1175.73 797.122 1182.61 790.235 1182.61 781.74C1182.61 781.633 1182.61 781.526 1182.61 781.419H1183C1183.5 772.82 1190.63 766 1199.35 766C1208.08 766 1215.21 772.82 1215.71 781.419H1216.1C1216.1 781.526 1216.1 781.633 1216.1 781.74C1216.1 790.235 1222.98 797.122 1231.48 797.122C1239.97 797.122 1246.86 790.235 1246.86 781.74C1246.86 781.633 1246.86 781.526 1246.86 781.419H1247.24C1247.74 772.82 1254.87 766 1263.6 766C1272.32 766 1279.45 772.82 1279.95 781.419H1280.34C1280.34 781.526 1280.34 781.633 1280.34 781.74C1280.34 790.235 1287.22 797.122 1295.72 797.122C1304.21 797.122 1311.1 790.235 1311.1 781.74C1311.1 781.633 1311.1 781.526 1311.1 781.419H1311.49C1311.98 772.82 1319.12 766 1327.84 766C1336.56 766 1343.69 772.82 1344.19 781.419H1344.58C1344.58 781.526 1344.58 781.633 1344.58 781.74C1344.58 790.235 1351.47 797.122 1359.96 797.122C1368.46 797.122 1375.34 790.235 1375.34 781.74C1375.34 781.633 1375.34 781.526 1375.34 781.419H1375.73C1376.23 772.82 1383.36 766 1392.08 766C1400.81 766 1407.94 772.82 1408.44 781.419H1408.82C1408.82 781.526 1408.82 781.633 1408.82 781.74C1408.82 790.235 1415.71 797.122 1424.2 797.122C1432.7 797.122 1439.59 790.235 1439.59 781.74C1439.59 781.633 1439.58 781.526 1439.58 781.419H1440.58C1440.58 781.526 1440.59 781.633 1440.59 781.74C1440.59 790.787 1433.25 798.122 1424.2 798.122C1415.48 798.122 1408.35 791.302 1407.85 782.703H1407.46C1407.46 782.596 1407.46 782.489 1407.46 782.382C1407.46 773.887 1400.58 767 1392.08 767C1383.59 767 1376.7 773.887 1376.7 782.382C1376.7 782.489 1376.7 782.596 1376.7 782.703H1376.31C1375.82 791.302 1368.68 798.122 1359.96 798.122C1351.24 798.122 1344.11 791.302 1343.61 782.703H1343.22C1343.22 782.596 1343.22 782.489 1343.22 782.382C1343.22 773.887 1336.33 767 1327.84 767C1319.34 767 1312.46 773.887 1312.46 782.382C1312.46 782.489 1312.46 782.596 1312.46 782.703H1312.07C1311.58 791.302 1304.44 798.122 1295.72 798.122C1287 798.122 1279.86 791.302 1279.37 782.703H1278.98C1278.98 782.596 1278.98 782.489 1278.98 782.382C1278.98 773.887 1272.09 767 1263.6 767C1255.1 767 1248.21 773.887 1248.21 782.382C1248.21 782.489 1248.22 782.596 1248.22 782.703H1247.83C1247.33 791.302 1240.2 798.122 1231.48 798.122C1222.75 798.122 1215.62 791.302 1215.12 782.703H1214.73C1214.73 782.596 1214.74 782.489 1214.74 782.382C1214.74 773.887 1207.85 767 1199.35 767C1190.86 767 1183.97 773.887 1183.97 782.382C1183.97 782.489 1183.97 782.596 1183.98 782.703H1183.59C1183.09 791.302 1175.96 798.122 1167.23 798.122C1158.51 798.122 1151.38 791.302 1150.88 782.703H1150.49C1150.49 782.596 1150.49 782.489 1150.49 782.382C1150.49 773.887 1143.6 767 1135.11 767C1126.61 767 1119.73 773.887 1119.73 782.382C1119.73 782.489 1119.73 782.596 1119.73 782.703H1119.34C1118.84 791.302 1111.71 798.122 1102.99 798.122C1094.26 798.122 1087.13 791.302 1086.63 782.703H1086.24C1086.25 782.596 1086.25 782.489 1086.25 782.382C1086.25 773.887 1079.36 767 1070.87 767C1062.37 767 1055.48 773.887 1055.48 782.382C1055.48 782.489 1055.48 782.596 1055.49 782.703H1055.1C1054.6 791.302 1047.47 798.122 1038.75 798.122C1030.02 798.122 1022.89 791.302 1022.39 782.703H1022C1022.01 782.596 1022.01 782.489 1022.01 782.382C1022.01 773.887 1015.12 767 1006.62 767C998.13 767 991.243 773.887 991.243 782.382C991.243 782.489 991.244 782.596 991.246 782.703H990.856C990.357 791.302 983.226 798.122 974.502 798.122C965.778 798.122 958.646 791.302 958.148 782.703H957.76C957.763 782.596 957.764 782.489 957.764 782.382C957.764 773.887 950.877 767 942.382 767C933.887 767 927 773.887 927 782.382C927 782.489 927.001 782.596 927.003 782.703L926.003 782.703C926.001 782.596 926 782.489 926 782.382C926 773.334 933.334 766 942.382 766Z" fill="#E88D6D"/>
<mask id="mask0_46_8845" style="mask-type:alpha" maskUnits="userSpaceOnUse" x="788" y="534" width="186" height="53">
<rect x="788" y="534" width="186" height="53" fill="#C4C4C4"/>
</mask>
<g mask="url(#mask0_46_8845)">
<line x1="757.508" y1="601.909" x2="950.463" y2="490.507" stroke="#A0BAAE" stroke-width="2"/>
<line x1="733.303" y1="559.986" x2="926.258" y2="448.583" stroke="#A0BAAE" stroke-width="2"/>
<line x1="761.541" y1="608.896" x2="954.496" y2="497.494" stroke="#A0BAAE" stroke-width="2"/>
<line x1="737.336" y1="566.973" x2="930.291" y2="455.57" stroke="#A0BAAE" stroke-width="2"/>
<line x1="765.574" y1="615.883" x2="958.529" y2="504.481" stroke="#A0BAAE" stroke-width="2"/>
<line x1="741.371" y1="573.96" x2="934.326" y2="462.557" stroke="#A0BAAE" stroke-width="2"/>
<line x1="769.609" y1="622.871" x2="962.564" y2="511.469" stroke="#A0BAAE" stroke-width="2"/>
<line x1="745.404" y1="580.948" x2="938.359" y2="469.545" stroke="#A0BAAE" stroke-width="2"/>
<line x1="773.645" y1="629.858" x2="966.6" y2="518.455" stroke="#A0BAAE" stroke-width="2"/>
<line x1="749.439" y1="587.935" x2="942.395" y2="476.532" stroke="#A0BAAE" stroke-width="2"/>
<line x1="777.678" y1="636.845" x2="970.633" y2="525.443" stroke="#A0BAAE" stroke-width="2"/>
<line x1="794.322" y1="637.676" x2="987.277" y2="526.274" stroke="#A0BAAE" stroke-width="2"/>
<line x1="810.967" y1="638.507" x2="1003.92" y2="527.104" stroke="#A0BAAE" stroke-width="2"/>
<line x1="827.613" y1="639.338" x2="1020.57" y2="527.935" stroke="#A0BAAE" stroke-width="2"/>
<line x1="844.258" y1="640.169" x2="1037.21" y2="528.766" stroke="#A0BAAE" stroke-width="2"/>
<line x1="860.904" y1="641" x2="1053.86" y2="529.597" stroke="#A0BAAE" stroke-width="2"/>
<line x1="753.473" y1="594.922" x2="946.428" y2="483.519" stroke="#A0BAAE" stroke-width="2"/>
</g>
<mask id="mask1_46_8845" style="mask-type:alpha" maskUnits="userSpaceOnUse" x="576" y="829" width="43" height="161">
<rect x="576" y="990" width="161" height="43" transform="rotate(-90 576 990)" fill="#C4C4C4"/>
</mask>
<g mask="url(#mask1_46_8845)">
<line y1="-1" x2="220.958" y2="-1" transform="matrix(-0.802955 -0.59604 0.970725 -0.240192 673.238 998.349)" stroke="#A0BAAE" stroke-width="2"/>
<line y1="-1" x2="220.958" y2="-1" transform="matrix(-0.802955 -0.59604 0.970725 -0.240192 606.473 1014.87)" stroke="#A0BAAE" stroke-width="2"/>
<line y1="-1" x2="220.958" y2="-1" transform="matrix(-0.802955 -0.59604 0.970725 -0.240192 684.367 995.595)" stroke="#A0BAAE" stroke-width="2"/>
<line y1="-1" x2="220.958" y2="-1" transform="matrix(-0.802955 -0.59604 0.970725 -0.240192 617.6 1012.12)" stroke="#A0BAAE" stroke-width="2"/>
<line y1="-1" x2="220.958" y2="-1" transform="matrix(-0.802955 -0.59604 0.970725 -0.240192 695.492 992.842)" stroke="#A0BAAE" stroke-width="2"/>
<line y1="-1" x2="220.958" y2="-1" transform="matrix(-0.802955 -0.59604 0.970725 -0.240192 628.729 1009.36)" stroke="#A0BAAE" stroke-width="2"/>
<line y1="-1" x2="220.958" y2="-1" transform="matrix(-0.802955 -0.59604 0.970725 -0.240192 706.623 990.088)" stroke="#A0BAAE" stroke-width="2"/>
<line y1="-1" x2="220.958" y2="-1" transform="matrix(-0.802955 -0.59604 0.970725 -0.240192 639.855 1006.61)" stroke="#A0BAAE" stroke-width="2"/>
<line y1="-1" x2="220.958" y2="-1" transform="matrix(-0.802955 -0.59604 0.970725 -0.240192 717.75 987.335)" stroke="#A0BAAE" stroke-width="2"/>
<line y1="-1" x2="220.958" y2="-1" transform="matrix(-0.802955 -0.59604 0.970725 -0.240192 650.982 1003.86)" stroke="#A0BAAE" stroke-width="2"/>
<line y1="-1" x2="220.958" y2="-1" transform="matrix(-0.802955 -0.59604 0.970725 -0.240192 728.877 984.582)" stroke="#A0BAAE" stroke-width="2"/>
<line y1="-1" x2="220.958" y2="-1" transform="matrix(-0.802955 -0.59604 0.970725 -0.240192 730.201 973.221)" stroke="#A0BAAE" stroke-width="2"/>
<line y1="-1" x2="220.958" y2="-1" transform="matrix(-0.802955 -0.59604 0.970725 -0.240192 731.523 961.86)" stroke="#A0BAAE" stroke-width="2"/>
<line y1="-1" x2="220.958" y2="-1" transform="matrix(-0.802955 -0.59604 0.970725 -0.240192 732.846 950.499)" stroke="#A0BAAE" stroke-width="2"/>
<line y1="-1" x2="220.958" y2="-1" transform="matrix(-0.802955 -0.59604 0.970725 -0.240192 734.17 939.138)" stroke="#A0BAAE" stroke-width="2"/>
<line y1="-1" x2="220.958" y2="-1" transform="matrix(-0.802955 -0.59604 0.970725 -0.240192 735.492 927.777)" stroke="#A0BAAE" stroke-width="2"/>
<line y1="-1" x2="220.958" y2="-1" transform="matrix(-0.802955 -0.59604 0.970725 -0.240192 662.111 1001.1)" stroke="#A0BAAE" stroke-width="2"/>
</g>
</g>
</svg>
