<svg width="16" height="18" viewBox="0 0 16 18" fill="none" xmlns="http://www.w3.org/2000/svg">
<path d="M12.5714 3.85764C13.3604 3.85764 14 3.23681 14 2.46979C14 1.70278 12.5714 0 12.5714 0C12.5714 0 11.1429 1.73299 11.1429 2.5C11.1429 3.26701 11.7821 3.85764 12.5714 3.85764ZM8 3.85764C8.78893 3.85764 9.42857 3.23681 9.42857 2.46979C9.42857 1.70278 8 0 8 0C8 0 6.57143 1.73299 6.57143 2.5C6.57143 3.26701 7.21071 3.85764 8 3.85764ZM13.6821 7.74653L13.7143 5.55556C13.7143 5.24875 13.4584 5 13.1429 5H12C11.6857 5 11.4286 5.25 11.4286 5.55556V7.77778H9.14286V5.55556C9.14286 5.24875 8.887 5 8.57143 5H7.42857C7.11429 5 6.85714 5.25 6.85714 5.55556V7.77778H4.57143V5.55556C4.57143 5.24875 4.31557 5 4 5H2.85714C2.54143 5 2.28571 5.25 2.28571 5.55556V7.77674C1.02321 7.77674 0 8.77153 0 9.96771V12.3531C0.3505 12.565 0.763929 12.7465 1.14286 12.7465C1.88 12.7465 2.75179 12.0615 3.025 11.7976C3.24821 11.5816 3.60857 11.5816 3.83179 11.7976C4.075 12.0938 4.97857 12.7465 5.71429 12.7465C6.45 12.7465 7.32321 12.0615 7.59643 11.7976C7.81964 11.5816 8.18 11.5816 8.40321 11.7976C8.64643 12.0938 9.55 12.7465 10.2857 12.7465C11.0214 12.7465 11.8946 12.0615 12.1679 11.7976C12.3911 11.5816 12.7514 11.5816 12.9746 11.7976C13.2179 12.0938 14.1214 12.7465 14.8571 12.7465C15.2361 12.7465 15.6496 12.565 16 12.3531V9.96875C16 8.77083 14.975 7.74653 13.6821 7.74653ZM12.5714 12.9618C12.0804 13.342 11.2132 13.8875 10.2857 13.8875C9.35821 13.8875 8.49107 13.3424 8 12.9618C7.50893 13.342 6.64179 13.8875 5.71429 13.8875C4.78679 13.8875 3.91964 13.3424 3.42857 12.9618C2.9375 13.342 2.07036 13.8875 1.14286 13.8875C0.740357 13.8875 0.353929 13.7791 0 13.6314V16.6654C0 17.2813 0.511786 17.7778 1.14286 17.7778H14.8571C15.4882 17.7778 16 17.2802 16 16.6667V13.6326C15.6461 13.7804 15.2596 13.8888 14.8571 13.8888C13.9286 13.8576 13.0643 13.3438 12.5714 12.9618ZM3.42857 3.85764C4.2175 3.85764 4.85714 3.23681 4.85714 2.46979C4.85714 1.70278 3.42857 0 3.42857 0C3.42857 0 2 1.73299 2 2.5C2 3.26701 2.63964 3.85764 3.42857 3.85764Z" fill="#8F91A0"/>
</svg>
