<svg width="16" height="18" viewBox="0 0 13 15" fill="none" xmlns="http://www.w3.org/2000/svg">
<path d="M6.66233 0.190256C6.1986 0.532715 5.92809 1.39665 5.8508 1.78581V1.90255H2.4115C1.7159 1.90255 0.363313 2.71978 0.0541582 4.12075C-0.193165 5.24153 0.466365 5.59956 0.827044 5.63847C3.93147 5.6255 10.4263 5.60734 11.5702 5.63847C13 5.67739 13 4.86016 13 4.50991C13 4.15967 13 3.69268 12.2271 2.71978C11.6088 1.94146 10.7071 1.85066 10.3335 1.90255H7.31929C7.35793 1.79877 7.49705 1.51339 7.74437 1.20206C7.9917 0.890733 7.84743 0.579406 7.74437 0.462658C7.67997 0.371857 7.52797 0.190256 7.43522 0.190256C7.31929 0.190256 7.242 -0.237819 6.66233 0.190256Z" fill="#8F91A0"/>
<path d="M6.5464 14.0443C10.8436 12.2075 11.6705 8.28475 11.5546 6.57245H1.42984C1.1701 10.9622 4.73266 13.3827 6.5464 14.0443Z" fill="#8F91A0"/>
</svg>
