<svg width="16" height="13" viewBox="0 0 16 13" fill="none" xmlns="http://www.w3.org/2000/svg">
<path d="M5.6 6.4C7.3675 6.4 8.8 4.96725 8.8 3.2C8.8 1.43275 7.3675 0 5.6 0C3.8325 0 2.4 1.43275 2.4 3.2C2.4 4.96725 3.8325 6.4 5.6 6.4ZM6.8675 7.6H4.3325C1.93925 7.6 0 9.54 0 11.9325C0 12.4125 0.388 12.8 0.8665 12.8H10.3325C10.8125 12.8 11.2 12.4125 11.2 11.9325C11.2 9.54 9.26 7.6 6.8675 7.6ZM11.9775 8H10.1313C11.28 8.9425 12 10.3525 12 11.9325C12 12.2525 11.905 12.5475 11.75 12.8H15.2C15.6425 12.8 16 12.44 16 11.9775C16 9.79 14.21 8 11.9775 8ZM10.8 6.4C12.3475 6.4 13.6 5.1475 13.6 3.6C13.6 2.0525 12.3475 0.8 10.8 0.8C10.1722 0.8 9.599 1.01388 9.132 1.36275C9.42 1.91575 9.6 2.535 9.6 3.2C9.6 4.088 9.30175 4.9035 8.81025 5.56775C9.3175 6.08 10.02 6.4 10.8 6.4Z" fill="#8F91A0"/>
</svg>
