<svg width="16" height="14" viewBox="0 0 16 14" fill="none" xmlns="http://www.w3.org/2000/svg">
<path d="M0 4.64836V4.46711C0 2.28274 1.57875 0.419615 3.73125 0.0608647C5.12813 -0.176323 6.60625 0.288052 7.625 1.30836L8 1.68274L8.34688 1.30836C9.39375 0.288052 10.8438 -0.176323 12.2688 0.0608647C14.4219 0.419615 16 2.28274 16 4.46711V4.64836C16 5.94524 15.4625 7.18586 14.5125 8.07024L8.86563 13.3421C8.63125 13.5609 8.32187 13.6827 8 13.6827C7.67812 13.6827 7.36875 13.5609 7.13438 13.3421L1.48719 8.07024C0.538437 7.18586 9.375e-06 5.94524 9.375e-06 4.64836H0Z" fill="#8F91A0"/>
</svg>
